      <svg class="w-100 h-100" width="77" height="77" viewBox="0 0 77 77" fill="none" xmlns="http://www.w3.org/2000/svg">
                          <path fill-rule="evenodd" clip-rule="evenodd" d="M33.0447 0.774641C24.8635 2.05979 17.2686 5.9545 11.528 11.8077C0.874123 22.6716 -2.31301 37.9224 3.07354 52.2629C4.97372 57.3221 7.32941 60.9453 11.4088 65.0831C16.7659 70.5164 22.1452 73.6884 29.1903 75.5674C32.2342 76.3794 33.3738 76.4924 38.5955 76.4996C43.8841 76.5072 44.9208 76.4049 48.0319 75.5681C62.9259 71.561 73.82 59.7033 76.2343 44.871C79.4395 25.1807 67.3337 6.60914 48.0319 1.605C44.1048 0.587036 36.812 0.183017 33.0447 0.774641ZM44.9399 3.83791C53.1905 5.27538 61.6591 10.5161 66.8933 17.4237C69.029 20.2421 71.842 26.0568 72.8704 29.7786C73.533 32.1772 73.6576 33.5682 73.6576 38.5694C73.6576 45.6164 73.102 48.1744 70.3332 53.8732C66.3071 62.1602 59.9371 68.007 51.0433 71.578C42.8128 74.8828 32.2691 74.5156 23.9691 70.6349C15.0436 66.4615 8.3427 59.0537 5.22398 49.9122C3.62663 45.23 2.8384 38.1215 3.53193 34.6535L3.75699 33.5282H20.7308H37.7042L43.0112 28.2126C47.5138 23.7021 48.3178 22.7313 48.3178 21.8038C48.3178 20.8787 47.5797 19.9799 43.5168 15.9567C40.0765 12.5502 38.4741 11.2028 37.8638 11.2028C37.2343 11.2028 34.9143 13.2927 28.9815 19.2043C20.1201 28.0336 19.9498 28.3026 21.9187 30.3576L22.8863 31.3677H13.4567C8.27032 31.3677 4.02705 31.295 4.02705 31.2064C4.02705 30.5046 6.12852 24.6366 6.99921 22.9056C9.58068 17.7758 14.1768 12.4998 18.7478 9.41963C22.864 6.64551 29.2371 4.1429 33.7343 3.53471C36.3885 3.17607 42.0131 3.32802 44.9399 3.83791ZM33.5153 26.4676C35.87 28.8287 37.5012 30.739 37.3593 30.9687C37.1962 31.2323 35.2603 31.3677 31.6562 31.3677H26.1998L24.6518 29.8485L23.1041 28.3296L26.0705 25.3474C27.7025 23.7075 29.1244 22.3655 29.231 22.3655C29.3376 22.3655 31.2655 24.2113 33.5153 26.4676ZM41.8363 32.9881L39.1536 35.6887H29.1522H19.1507V36.8687C19.1507 37.518 19.4032 38.4092 19.7114 38.8492L20.2717 39.6497H37.9192C49.3956 39.6497 55.8105 39.5194 56.2635 39.277C56.8836 38.945 56.9599 38.4931 56.9599 35.1565C56.9599 30.174 57.1238 30.2874 49.9389 30.2874H44.5189L41.8363 32.9881ZM48.2015 34.8249C48.5198 35.6545 47.6578 36.0733 45.7972 35.993C43.6536 35.9001 43.2766 35.7413 43.2766 34.93C43.2766 34.3309 43.5611 34.2484 45.6283 34.2484C47.4529 34.2484 48.0301 34.3777 48.2015 34.8249ZM54.0792 34.93C54.0792 35.7644 53.4005 36.0506 51.4391 36.0434C49.6484 36.0366 48.8522 35.612 49.1543 34.8249C49.3257 34.3777 49.9029 34.2484 51.7275 34.2484C53.7948 34.2484 54.0792 34.3309 54.0792 34.93ZM19.5234 42.1466C18.9185 43.2772 19.0542 48.7142 19.7114 49.6519L20.2717 50.4523H38.1839C51.6353 50.4523 56.2034 50.3447 56.5278 50.0202C57.1184 49.4297 57.1184 42.4728 56.5278 41.8822C56.203 41.5574 51.5935 41.4501 37.9959 41.4501C20.4697 41.4501 19.8846 41.4721 19.5234 42.1466ZM48.2015 45.6275C48.5198 46.4568 47.6859 46.8396 45.5484 46.8461C43.6403 46.8515 43.0566 46.5036 43.4134 45.5739C43.7138 44.791 47.8983 44.8378 48.2015 45.6275ZM53.8992 45.9512C53.8992 46.5728 53.628 46.6844 51.9187 46.7647C49.7035 46.8691 48.8198 46.4993 49.1608 45.6102C49.3455 45.1288 49.8162 45.0366 51.644 45.1238C53.6234 45.2181 53.8992 45.3193 53.8992 45.9512ZM19.5234 52.9492C18.9185 54.0799 19.0542 59.5168 19.7114 60.4545L20.2717 61.255H38.1839C51.6353 61.255 56.2034 61.1473 56.5278 60.8229C57.1184 60.2323 57.1184 53.2754 56.5278 52.6849C56.203 52.3601 51.5935 52.2528 37.9959 52.2528C20.4697 52.2528 19.8846 52.2747 19.5234 52.9492ZM48.1378 56.7539C48.1378 57.3801 47.8612 57.4884 46.0147 57.5835C43.7778 57.6991 43.035 57.3624 43.4041 56.4006C43.5834 55.9339 44.0724 55.8403 45.8826 55.9264C47.862 56.0207 48.1378 56.1219 48.1378 56.7539ZM53.8992 56.7539C53.8992 57.3801 53.6226 57.4884 51.7761 57.5835C49.5393 57.6991 48.7964 57.3624 49.1655 56.4006C49.3448 55.9339 49.8338 55.8403 51.644 55.9264C53.6234 56.0207 53.8992 56.1219 53.8992 56.7539Z" fill="white"/>
       </svg>    